<svg style="display:none;"><symbol viewBox="0 0 167 32" id="shape-logo"><title>logo</title> <g> <path fill="#4d442e" d="M84.5,14.6c-2.6,0-4.4,1.9-4.4,4.6v12.1h-6V9.6h5.6l0.3,3.2c1.1-2.1,3.2-3.6,5.6-3.6c0.3,0,0.3,0,0.7,0v5.8
        C85.5,14.7,85,14.6,84.5,14.6"/> <rect y="2.5" fill="#4d442e" width="6.8" height="28.9"/> <path fill="#4d442e" d="M24.4,31.3v-15c0-1.5-0.6-2.7-2.2-2.7c-2.5,0-3.9,1.6-3.9,4v13.6h-6V9.6h5.6l0.3,2.1c2-1.7,3.8-2.6,6.5-2.6
        c3.8,0,5.6,2.3,5.6,6v16.2H24.4"/> <path fill="#4d442e" d="M42.7,31.9c-2.8,0-6.6-1.1-6.6-5.3V14h-2.6v-3.5c3-0.9,4.5-3.3,5.3-6.2h3.3v5.3h4.8v4.3h-4.8v10.2
        c0,2,0.4,3.4,2.7,3.4c1.1,0,2.4-0.5,2.8-0.7v4C46.5,31.4,44.5,31.9,42.7,31.9"/> <path fill="#4d442e" d="M69.6,22.3H56c0,3.2,1.7,5.2,5,5.2c2.2,0,3.7-0.6,5.4-2.4l2.7,3.4c-2.6,2.7-5.6,3.5-9.2,3.5
        c-6.5,0-10.2-5.4-10.2-11.6c0-6.7,3.7-11.4,10.7-11.4c6.3,0,9.3,5.3,9.3,11.5C69.7,21.1,69.7,21.7,69.6,22.3 M60.1,13.4
        c-3.2,0-4,2.6-4.1,5.2h7.5C63.5,16.3,62.9,13.4,60.1,13.4z"/> <path fill="#4d442e" d="M99.9,4.6c-2,0-3,1-3,3.1c0,0,0,1.3,0,1.9h4V14h-4v17.3h-6V14.1h-2.5V9.6h2.5V6.7c0-4.4,3.6-6.2,7.5-6.2
        c1.1,0,2.5,0.1,3.4,0.3v4C101.2,4.7,100.5,4.6,99.9,4.6"/> <path fill="#4d442e" d="M114.8,31.3l-0.2-2c-1.8,1.7-3.6,2.7-6.1,2.7c-3.8,0-6.3-2.7-6.3-6.4c0-7,7.1-7.3,12.3-8.1v-2
        c0-1.8-2-2.1-3.3-2.1c-2.2,0-4.2,0.8-5.5,2.3l-2.3-3.6c2.1-2.1,5.5-3,8.4-3c4,0,8.8,1,8.8,6v16.3H114.8 M114.7,20.9
        c-2.5,0.3-6.2,0.5-6.2,3.9c0,1.6,0.8,2.5,2.4,2.5c1.9,0,3.8-1.2,3.8-3.2V20.9z"/> <path fill="#4d442e" d="M134.6,31.9c-6.7,0-10-4.5-10-11.7c0-7.1,4.6-11.2,10-11.2c4,0,7.1,1.6,8.3,5.1l-4.1,2
        c-0.4-1.3-1.6-2.7-3.4-2.7c-3.6,0-4.5,2.6-4.5,6.9c0,4.6,1.7,7,4.4,7c2,0,3.4-0.9,4-2.6l3.8,2.4C141.6,30.6,138,31.9,134.6,31.9"/> <path fill="#4d442e" d="M164.3,22.3h-13.6c0,3.2,1.7,5.2,5,5.2c2.2,0,3.7-0.6,5.4-2.4l2.7,3.4c-2.6,2.7-5.6,3.5-9.2,3.5
        c-6.5,0-10.2-5.4-10.2-11.6c0-6.7,3.7-11.4,10.7-11.4c6.3,0,9.3,5.3,9.3,11.5C164.3,21.1,164.3,21.7,164.3,22.3 M154.8,13.4
        c-3.2,0-4,2.6-4.1,5.2h7.5C158.2,16.3,157.6,13.4,154.8,13.4z"/> <path fill="#4d442e" d="M164.1,6.1c1.1,0,2,0.9,2,2c0,1.2-0.9,2.1-2,2.1c-1.1,0-2-0.9-2-2.1C162,7,162.9,6.1,164.1,6.1L164.1,6.1
         M164.1,6.4c-0.9,0-1.6,0.8-1.6,1.7c0,1,0.7,1.7,1.6,1.7c0.9,0,1.6-0.8,1.6-1.7C165.7,7.2,165,6.4,164.1,6.4L164.1,6.4z M163.7,9.3
        h-0.4V7c0.2,0,0.4-0.1,0.6-0.1c0.3,0,0.6,0.1,0.7,0.2c0.1,0.1,0.2,0.3,0.2,0.5c0,0.3-0.2,0.5-0.4,0.6v0c0.2,0,0.3,0.2,0.4,0.6
        c0.1,0.4,0.1,0.5,0.1,0.6h-0.4c-0.1-0.1-0.1-0.3-0.2-0.6c-0.1-0.3-0.2-0.4-0.5-0.4h-0.3V9.3z M163.7,8.1h0.3c0.3,0,0.6-0.1,0.6-0.4
        c0-0.2-0.1-0.4-0.6-0.4c-0.1,0-0.2,0-0.3,0V8.1z"/> </g> </symbol></svg>