<svg xmlns="http://www.w3.org/2000/svg" viewBox="0 0 167 32"><g fill="#4d442e"><path d="M84.5 14.6c-2.6 0-4.4 1.9-4.4 4.6v12.1h-6V9.6h5.6l.3 3.2c1.1-2.1 3.2-3.6 5.6-3.6h.7V15c-.8-.3-1.3-.4-1.8-.4M0 2.5h6.8v28.9H0zM24.4 31.3v-15c0-1.5-.6-2.7-2.2-2.7-2.5 0-3.9 1.6-3.9 4v13.6h-6V9.6h5.6l.3 2.1c2-1.7 3.8-2.6 6.5-2.6 3.8 0 5.6 2.3 5.6 6v16.2h-5.9M42.7 31.9c-2.8 0-6.6-1.1-6.6-5.3V14h-2.6v-3.5c3-.9 4.5-3.3 5.3-6.2h3.3v5.3h4.8v4.3h-4.8v10.2c0 2 .4 3.4 2.7 3.4 1.1 0 2.4-.5 2.8-.7v4c-1.1.6-3.1 1.1-4.9 1.1M69.6 22.3H56c0 3.2 1.7 5.2 5 5.2 2.2 0 3.7-.6 5.4-2.4l2.7 3.4c-2.6 2.7-5.6 3.5-9.2 3.5-6.5 0-10.2-5.4-10.2-11.6C49.7 13.7 53.4 9 60.4 9c6.3 0 9.3 5.3 9.3 11.5 0 .6 0 1.2-.1 1.8m-9.5-8.9c-3.2 0-4 2.6-4.1 5.2h7.5c0-2.3-.6-5.2-3.4-5.2zM99.9 4.6c-2 0-3 1-3 3.1v1.9h4V14h-4v17.3h-6V14.1h-2.5V9.6h2.5V6.7c0-4.4 3.6-6.2 7.5-6.2 1.1 0 2.5.1 3.4.3v4c-.6-.1-1.3-.2-1.9-.2M114.8 31.3l-.2-2c-1.8 1.7-3.6 2.7-6.1 2.7-3.8 0-6.3-2.7-6.3-6.4 0-7 7.1-7.3 12.3-8.1v-2c0-1.8-2-2.1-3.3-2.1-2.2 0-4.2.8-5.5 2.3l-2.3-3.6c2.1-2.1 5.5-3 8.4-3 4 0 8.8 1 8.8 6v16.3h-5.8m-.1-10.5c-2.5.3-6.2.5-6.2 3.9 0 1.6.8 2.5 2.4 2.5 1.9 0 3.8-1.2 3.8-3.2v-3.2zM134.6 31.9c-6.7 0-10-4.5-10-11.7 0-7.1 4.6-11.2 10-11.2 4 0 7.1 1.6 8.3 5.1l-4.1 2c-.4-1.3-1.6-2.7-3.4-2.7-3.6 0-4.5 2.6-4.5 6.9 0 4.6 1.7 7 4.4 7 2 0 3.4-.9 4-2.6l3.8 2.4c-1.5 3.5-5.1 4.8-8.5 4.8M164.3 22.3h-13.6c0 3.2 1.7 5.2 5 5.2 2.2 0 3.7-.6 5.4-2.4l2.7 3.4c-2.6 2.7-5.6 3.5-9.2 3.5-6.5 0-10.2-5.4-10.2-11.6 0-6.7 3.7-11.4 10.7-11.4 6.3 0 9.3 5.3 9.3 11.5-.1.6-.1 1.2-.1 1.8m-9.5-8.9c-3.2 0-4 2.6-4.1 5.2h7.5c0-2.3-.6-5.2-3.4-5.2zM164.1 6.1c1.1 0 2 .9 2 2 0 1.2-.9 2.1-2 2.1s-2-.9-2-2.1c-.1-1.1.8-2 2-2m0 .3c-.9 0-1.6.8-1.6 1.7 0 1 .7 1.7 1.6 1.7.9 0 1.6-.8 1.6-1.7 0-.9-.7-1.7-1.6-1.7zm-.4 2.9h-.4V7c.2 0 .4-.1.6-.1.3 0 .6.1.7.2.1.1.2.3.2.5 0 .3-.2.5-.4.6.2 0 .3.2.4.6.1.4.1.5.1.6h-.4c-.1-.1-.1-.3-.2-.6s-.2-.4-.5-.4h-.3v.9zm0-1.2h.3c.3 0 .6-.1.6-.4 0-.2-.1-.4-.6-.4h-.3v.8z"/></g></svg>